<svg xmlns="http://www.w3.org/2000/svg" viewBox="0 0 89 138" width="89" height="138">
	<style>
		tspan { white-space:pre }
		.shp0 { fill: #373435 } 
		.shp1 { fill: #d19f5e } 
		.shp2 { fill: #a6855d } 
		.shp3 { fill: #fefefe } 
		.shp4 { fill: #bdc7d3 } 
		.shp5 { fill: #848688 } 
		.shp6 { fill: #635b53 } 
		.shp7 { fill: #fffbd6 } 
		.shp8 { fill: #ffcc29 } 
		.shp9 { fill: #bea058 } 
	</style>
	<g id="Page-1">
		<g id="Layer_x0020_1">
			<g id="Group">
				<path id="Shape" fill-rule="evenodd" class="shp0" d="M24.29 47.68C14.12 61.86 2.76 76.31 2.39 99.78C2.02 123.62 22.17 141.86 55.45 137.26C88.27 132.7 86.41 102.83 80.58 81.1C74.72 59.24 81.7 50.12 65.05 37.38C55.28 29.94 24.73 29.27 24.29 47.68L24.29 47.68Z" />
				<path id="Shape" fill-rule="evenodd" class="shp1" d="M24.66 50.73C15.23 63.9 4.65 77.31 4.31 99.17C3.98 121.34 22.71 138.27 53.67 134.01C84.16 129.79 82.44 101.99 77.01 81.77C71.56 61.46 78.06 52.97 62.59 41.14C53.53 34.2 25.1 33.59 24.66 50.73L24.66 50.73Z" />
				<path id="Shape" fill-rule="evenodd" class="shp2" d="M24.66 50.73C15.23 63.9 4.65 77.31 4.31 99.17C3.98 121.34 22.71 138.27 53.67 134.01C84.16 129.79 82.44 101.99 77.01 81.77C71.56 61.46 78.06 52.97 62.59 41.14C58.48 37.99 50.4 36.14 42.75 36.68C50.63 38.56 47.97 40.5 52.66 45.43C64.08 46.64 70.28 58.14 64.45 67.36C72.5 68.09 71.89 77.31 69.37 82.61C68.62 89.95 64.65 96.96 61.04 99.01C49.86 133.07 8.46 126.1 7.24 97.8C6.57 87.57 9.5 78.02 16.81 71.51C16.84 65.04 21.97 54.48 26.78 51.3C28.16 51.1 27.76 48.95 24.66 50.73L24.66 50.73Z" />
				<path id="Shape" fill-rule="evenodd" class="shp2" d="M28.6 50.56C37.66 49.19 41.17 72.82 30.42 74.5C16.17 76.68 20.69 51.77 28.6 50.56L28.6 50.56Z" />
				<path id="Shape" fill-rule="evenodd" class="shp0" d="M28.77 55.45C37.63 54.28 41.03 74.33 30.56 75.77C16.68 77.65 21.09 56.46 28.77 55.45L28.77 55.45Z" />
				<path id="Shape" fill-rule="evenodd" class="shp0" d="M55.89 51.83C51.21 44.96 42.18 45.87 40.83 57.2C50.63 54.85 54.91 54.25 55.89 51.83L55.89 51.83Z" />
				<path id="Shape" fill-rule="evenodd" class="shp3" d="M29.21 57.2C36.75 56.19 39.69 73.36 30.72 74.6C18.83 76.17 22.61 58.07 29.21 57.2L29.21 57.2Z" />
				<path id="Shape" fill-rule="evenodd" class="shp3" d="M29.81 56.8C36.25 56.93 36.42 71.58 28.8 71.45C18.73 71.25 24.22 56.7 29.81 56.8L29.81 56.8Z" />
				<path id="Shape" fill-rule="evenodd" class="shp4" d="M32.64 58.1C37.43 61.62 38.14 73.59 30.72 74.6C23.99 75.5 22.27 70.07 23.25 65.04C22.87 68.33 24.26 71.35 28.8 71.45C35.07 71.58 36.05 61.72 32.64 58.1L32.64 58.1Z" />
				<path id="Shape" fill-rule="evenodd" class="shp1" d="M29.61 71.28C25.64 69.44 21.43 70.01 20.21 72.59C19 75.14 21.19 78.76 25.17 80.6C29.11 82.48 33.32 81.91 34.53 79.33C35.78 76.74 33.55 73.16 29.61 71.28L29.61 71.28Z" />
				<path id="Shape" fill-rule="evenodd" class="shp0" d="M34.26 65.35C32.91 65.35 31.84 66.45 31.84 67.79C31.84 69.17 32.91 70.27 34.26 70.27C35.58 70.27 36.65 69.17 36.65 67.79C36.65 66.45 35.58 65.35 34.26 65.35L34.26 65.35Z" />
				<path id="Shape" fill-rule="evenodd" class="shp5" d="M34.19 65.88C33.12 65.88 32.24 66.75 32.24 67.86C32.24 68.93 33.12 69.84 34.19 69.84C35.27 69.84 36.15 68.93 36.15 67.86C36.15 66.75 35.27 65.88 34.19 65.88L34.19 65.88Z" />
				<path id="Shape" fill-rule="evenodd" class="shp3" d="M32.44 66.99C32.34 67.26 32.24 67.52 32.24 67.86C32.24 68.93 33.12 69.84 34.19 69.84C34.63 69.84 35.04 69.67 35.34 69.44C35.07 69.6 34.77 69.67 34.43 69.67C33.28 69.67 32.38 68.73 32.38 67.59C32.38 67.36 32.41 67.16 32.44 66.99L32.44 66.99Z" />
				<path id="Shape" fill-rule="evenodd" class="shp0" d="M34.5 65.81C33.59 65.81 32.85 66.55 32.85 67.49C32.85 68.4 33.59 69.17 34.5 69.17C35.41 69.17 36.15 68.4 36.15 67.49C36.15 66.55 35.41 65.81 34.5 65.81L34.5 65.81Z" />
				<path id="Shape" fill-rule="evenodd" class="shp3" d="M34.94 66.02C34.46 65.88 33.99 66.05 33.82 66.42C33.69 66.79 33.96 67.22 34.43 67.36C34.87 67.52 35.34 67.36 35.51 66.99C35.64 66.62 35.37 66.18 34.94 66.02L34.94 66.02Z" />
				<path id="Shape" fill-rule="evenodd" class="shp2" d="M50.6 49.12C37.9 48.15 34.43 76.91 49.49 78.15C69.43 79.76 61.68 49.99 50.6 49.12L50.6 49.12Z" />
				<path id="Shape" fill-rule="evenodd" class="shp0" d="M50.3 53.48C38.61 52.64 35.41 76.81 49.29 77.85C67.65 79.19 60.51 54.21 50.3 53.48L50.3 53.48Z" />
				<path id="Shape" fill-rule="evenodd" class="shp3" d="M49.96 56.02C39.69 55.29 36.89 76.54 49.08 77.45C65.22 78.62 58.96 56.66 49.96 56.02L49.96 56.02Z" />
				<path id="Shape" fill-rule="evenodd" class="shp4" d="M42.08 72.55C43.26 75.2 45.55 77.18 49.08 77.45C65.02 78.62 59.09 57.2 50.3 56.06C57.41 59.11 59.83 77.28 46.22 74.77C44.44 74.43 43.05 73.63 42.08 72.55L42.08 72.55Z" />
				<path id="Shape" fill-rule="evenodd" class="shp0" d="M49.02 65.28C50.5 65.28 51.68 66.49 51.68 67.96C51.68 69.44 50.5 70.61 49.02 70.61C47.57 70.61 46.39 69.44 46.39 67.96C46.39 66.49 47.57 65.28 49.02 65.28L49.02 65.28Z" />
				<path id="Shape" fill-rule="evenodd" class="shp5" d="M49.08 65.85C50.26 65.85 51.21 66.82 51.21 67.99C51.21 69.17 50.26 70.14 49.08 70.14C47.91 70.14 46.96 69.17 46.96 67.99C46.96 66.82 47.91 65.85 49.08 65.85L49.08 65.85Z" />
				<path id="Shape" fill-rule="evenodd" class="shp3" d="M50.97 67.06C51.11 67.32 51.21 67.66 51.21 67.99C51.21 69.17 50.26 70.14 49.08 70.14C48.61 70.14 48.18 70.01 47.84 69.74C48.14 69.87 48.48 69.97 48.82 69.97C50.06 69.97 51.07 68.97 51.07 67.69C51.07 67.46 51.04 67.26 50.97 67.06L50.97 67.06Z" />
				<path id="Shape" fill-rule="evenodd" class="shp0" d="M48.75 65.78C49.76 65.78 50.57 66.59 50.57 67.59C50.57 68.6 49.76 69.4 48.75 69.4C47.74 69.4 46.93 68.6 46.93 67.59C46.93 66.59 47.74 65.78 48.75 65.78L48.75 65.78Z" />
				<path id="Shape" fill-rule="evenodd" class="shp3" d="M48.31 66.02C48.78 65.85 49.32 66.02 49.46 66.42C49.62 66.82 49.35 67.29 48.85 67.46C48.34 67.66 47.84 67.46 47.67 67.06C47.54 66.65 47.8 66.18 48.31 66.02L48.31 66.02Z" />
				<path id="Shape" fill-rule="evenodd" class="shp1" d="M50.94 70.58C55.72 66.69 61.68 66.02 64.24 69.13C66.81 72.25 65.02 77.92 60.24 81.84C55.45 85.76 49.49 86.4 46.93 83.28C44.37 80.2 46.15 74.5 50.94 70.58L50.94 70.58Z" />
				<path id="Shape" fill-rule="evenodd" class="shp0" d="M67.28 71.92C65.69 69.2 63.91 69.6 63.27 72.35C64.14 70.37 66 70.48 67.28 71.92L67.28 71.92Z" />
				<path id="Shape" fill-rule="evenodd" class="shp0" d="M28.8 113.93C26.92 110.98 24.42 111.41 21.7 112.69C23.85 113.52 27.32 114.23 28.8 113.93L28.8 113.93Z" />
				<path id="Shape" fill-rule="evenodd" class="shp0" d="M58.18 116.74C54.51 113.89 51.58 115.54 48.75 118.35C51.85 118.45 56.5 117.75 58.18 116.74L58.18 116.74Z" />
				<path id="Shape" fill-rule="evenodd" class="shp0" d="M12.06 100.11C10.81 97.3 8.56 97.36 6 98.1C7.78 99.14 10.75 100.21 12.06 100.11L12.06 100.11Z" />
				<path id="Shape" fill-rule="evenodd" class="shp0" d="M83.38 102.8C79.03 101.15 76.71 103.6 74.86 107.12C77.82 106.28 82.07 104.27 83.38 102.8L83.38 102.8Z" />
				<path id="Shape" fill-rule="evenodd" class="shp0" d="M48.51 129.15C45.28 126.43 42.52 127.84 39.89 130.29C42.68 130.49 46.93 130.02 48.51 129.15L48.51 129.15Z" />
				<path id="Shape" fill-rule="evenodd" class="shp0" d="M17.65 81.98C16.74 79.9 15.09 79.93 13.21 80.5C14.52 81.24 16.68 82.01 17.65 81.98L17.65 81.98Z" />
				<path id="Shape" fill-rule="evenodd" class="shp0" d="M78.53 77.85C75.19 76.24 73.21 78.02 71.49 80.67C73.91 80.23 77.38 78.92 78.53 77.85L78.53 77.85Z" />
				<path id="Shape" fill-rule="evenodd" class="shp0" d="M68.89 58.98C66.77 57.3 65.05 58.24 63.4 59.88C65.19 59.95 67.92 59.58 68.89 58.98L68.89 58.98Z" />
				<path id="Shape" fill-rule="evenodd" class="shp6" d="M54.61 47.27C52.72 44.32 50.16 44.76 47.43 46.07C49.62 46.94 53.16 47.61 54.61 47.27L54.61 47.27Z" />
				<path id="Shape" fill-rule="evenodd" class="shp7" d="M31.9 96.33C21.12 100.05 37.56 106.69 45.38 106.85C37.53 105.55 28.27 100.18 31.9 96.33L31.9 96.33Z" />
				<path id="Shape" fill-rule="evenodd" class="shp2" d="M32.07 105.31C36.32 113.26 68.52 122.68 64.51 96.06C63.67 97.33 61.55 97.7 60.84 99.44C57.17 111.01 36.08 107.62 32.07 105.31L32.07 105.31Z" />
				<path id="Shape" fill-rule="evenodd" class="shp2" d="M19.34 75.07C24.73 95.29 69.13 97.47 65.12 70.84C60.44 89.08 28.2 90.86 19.34 75.07L19.34 75.07Z" />
				<path id="Shape" fill-rule="evenodd" class="shp0" d="M63.98 68.09C57.3 65.41 51.14 67.52 47.2 74.93C52.69 67.83 59.46 67.39 63.98 68.09L63.98 68.09Z" />
				<path id="Shape" fill-rule="evenodd" class="shp0" d="M28.84 100.82C32.11 109.8 48.01 111.61 57.2 106.62C45.92 110.21 33.59 104.98 28.84 100.82L28.84 100.82Z" />
				<path id="Shape" fill-rule="evenodd" class="shp0" d="M19.34 75.07C18.9 84.42 38.88 92.74 32.38 99.74C47.43 112.92 74.76 101.59 65.15 70.78C61.55 94.15 22.5 87.91 19.34 75.07L19.34 75.07Z" />
				<path id="Shape" fill-rule="evenodd" class="shp3" d="M33.18 86.67C50.16 96.63 64.65 92.94 64.82 75.67C61.45 83.55 53.67 89.89 33.18 86.67L33.18 86.67Z" />
				<path id="Shape" fill-rule="evenodd" class="shp4" d="M33.18 86.67C50.1 89.99 59.9 89.32 64.82 75.67C61.45 83.55 53.67 89.89 33.18 86.67L33.18 86.67Z" />
				<path id="Shape" fill-rule="evenodd" class="shp3" d="M37.9 101.99C46.52 107.02 58.05 103.23 62.32 96.12C56.06 98.54 41.94 101.39 37.9 101.99L37.9 101.99Z" />
				<path id="Shape" fill-rule="evenodd" class="shp2" d="M58.62 69.91C59.73 69.6 60.81 70.07 61.01 70.98C61.21 71.92 60.47 72.92 59.36 73.22C58.25 73.56 57.17 73.06 56.97 72.15C56.77 71.25 57.51 70.24 58.62 69.91L58.62 69.91Z" />
				<path id="Shape" fill-rule="evenodd" class="shp2" d="M56.73 74.36C57.47 74.16 58.18 74.47 58.35 75.1C58.48 75.71 57.98 76.38 57.24 76.58C56.5 76.81 55.76 76.48 55.62 75.87C55.49 75.27 55.99 74.6 56.73 74.36L56.73 74.36Z" />
				<path id="Shape" fill-rule="evenodd" class="shp2" d="M54.61 72.25C55.01 72.15 55.42 72.32 55.49 72.65C55.55 72.99 55.28 73.36 54.88 73.46C54.48 73.59 54.1 73.39 54 73.09C53.94 72.76 54.21 72.39 54.61 72.25L54.61 72.25Z" />
				<path id="Shape" fill-rule="evenodd" class="shp2" d="M24.05 75.14C23.25 74.73 22.87 73.93 23.25 73.29C23.58 72.65 24.53 72.45 25.33 72.86C26.14 73.26 26.51 74.06 26.14 74.7C25.81 75.34 24.86 75.54 24.05 75.14L24.05 75.14Z" />
				<path id="Shape" fill-rule="evenodd" class="shp2" d="M27.15 73.76C26.65 73.39 26.48 72.79 26.78 72.39C27.09 71.98 27.76 71.95 28.27 72.32C28.8 72.65 28.97 73.26 28.64 73.66C28.33 74.06 27.66 74.1 27.15 73.76L27.15 73.76Z" />
				<path id="Shape" fill-rule="evenodd" class="shp2" d="M27.36 76.14C27.09 75.97 26.98 75.64 27.15 75.44C27.32 75.2 27.69 75.2 27.96 75.37C28.23 75.57 28.33 75.91 28.16 76.11C28 76.34 27.62 76.34 27.36 76.14L27.36 76.14Z" />
				<path id="Shape" fill-rule="evenodd" class="shp0" d="M34.7 73.66C39.01 69.2 38.61 56.96 35.47 51.6C36.89 56.9 37.33 69.4 34.7 73.66L34.7 73.66Z" />
				<path id="Shape" fill-rule="evenodd" class="shp0" d="M21.43 76.31C20.01 73.96 18.46 74.3 17.92 76.68C18.66 74.97 20.28 75.03 21.43 76.31L21.43 76.31Z" />
				<path id="Shape" fill-rule="evenodd" class="shp0" d="M53.13 10.7C47.97 13.51 43.53 18.84 40.93 25.58C42.11 24.94 43.39 24.41 44.74 23.97C49.96 22.23 55.18 22.2 59.23 23.57C58.35 18.37 56.19 13.88 53.13 10.7L53.13 10.7Z" />
				<path id="Shape" fill-rule="evenodd" class="shp0" d="M18.7 20.02C24.56 19.85 31.13 22.2 36.79 26.69C35.44 26.76 34.06 26.92 32.68 27.22C27.29 28.36 22.77 30.98 19.98 34.2C18.09 29.27 17.65 24.31 18.7 20.02L18.7 20.02Z" />
				<path id="Shape" fill-rule="evenodd" class="shp0" d="M46.12 50.22C35.54 31.08 15.93 19.14 0 22.77C2.56 25.88 4.99 29.14 7.24 32.59C11.86 39.7 15.53 47.11 18.29 54.72C27.49 54.21 36.82 52.74 46.12 50.22L46.12 50.22Z" />
				<path id="Shape" fill-rule="evenodd" class="shp0" d="M45.41 50.43C44.77 28.6 55.59 8.42 71.18 3.49C70.58 7.44 70.14 11.5 69.97 15.62C69.57 24.07 70.21 32.35 71.69 40.33C63.54 44.49 54.81 47.88 45.51 50.39L45.41 50.43L45.41 50.43Z" />
				<path id="Shape" fill-rule="evenodd" class="shp0" d="M32.24 0C44.4 7.31 55.99 23.7 62.63 44.59C57.27 46.8 51.75 48.72 45.99 50.26C40.22 51.83 34.5 52.97 28.77 53.78C23.82 32.39 25.47 12.44 32.24 0L32.24 0Z" />
				<path id="Shape" fill-rule="evenodd" class="shp8" d="M33.08 3.12C39.79 7.14 46.29 14.32 51.68 23.6C55.62 15.22 61.82 8.85 69.23 6.5C68.69 9.92 68.32 13.44 68.15 17C67.85 24.27 68.39 31.42 69.67 38.32C65.66 40.37 61.48 42.21 57.14 43.79C53.3 45.26 49.32 46.57 45.24 47.68C41.54 48.68 37.8 49.52 34.06 50.16C29.04 51.1 23.99 51.7 19.03 51.97C16.64 45.4 13.48 38.99 9.47 32.89C7.55 29.91 5.42 27.06 3.23 24.37C10.95 22.63 19.67 25.11 27.46 30.54C27.32 19.65 29.31 10.06 33.08 3.12L33.08 3.12Z" />
				<path id="Shape" fill-rule="evenodd" class="shp7" d="M33.08 3.12C30.83 10.19 29.51 23.5 30.96 35.41C26.45 30.34 15.93 24.94 8.12 24.48C12.97 28.83 18.26 44.56 19.03 51.97C16.64 45.4 13.48 38.99 9.47 32.89C7.55 29.91 5.42 27.06 3.23 24.37C10.95 22.63 19.67 25.11 27.46 30.54C27.32 19.65 29.31 10.06 33.08 3.12L33.08 3.12Z" />
				<path id="Shape" fill-rule="evenodd" class="shp9" d="M33.08 3.12C39.11 6.97 46.96 17.47 51.58 27.09C55.38 18.67 62.12 9.09 69.23 6.5C68.69 9.92 68.32 13.44 68.15 17C67.85 24.27 68.39 31.42 69.67 38.32C65.66 40.37 61.48 42.21 57.14 43.79C53.3 45.26 49.32 46.57 45.24 47.68C41.54 48.68 37.8 49.52 34.06 50.16C29.04 51.1 23.99 51.7 19.03 51.97C22.64 51.47 49.22 47.68 58.05 39.6C48.85 43.15 29.34 46.87 30.79 45.56C44.1 39.33 45.75 17.07 33.08 3.12L33.08 3.12Z" />
				<path id="Shape" fill-rule="evenodd" class="shp8" d="M69.23 6.5C68.69 9.92 68.32 13.44 68.15 17C67.85 24.27 68.39 31.42 69.67 38.32C68.93 38.69 68.19 39.06 67.45 39.43C65.66 31.01 66.06 15.09 69.23 6.5L69.23 6.5Z" />
				<path id="Shape" fill-rule="evenodd" class="shp0" d="M67.48 34.1C62.7 37.89 54.31 41.78 44.4 44.46C34.5 47.14 25.3 48.01 19.2 47.17C26.51 46.5 35 44.96 43.86 42.55C52.76 40.17 60.84 37.22 67.48 34.1L67.48 34.1Z" />
				<path id="Shape" fill-rule="evenodd" class="shp0" d="M19.3 71.78C23.31 69.07 29.34 68.5 33.49 74.3C28.67 69.07 22.47 70.98 19.3 71.78L19.3 71.78Z" />
			</g>
			<path id="Shape" fill-rule="evenodd" class="shp8" d="M263.86 117C264.02 116.53 264.18 116.06 264.33 115.59L265.94 114.93L265.03 113.46C267.46 105.89 269.36 98.32 270.72 90.76L282.22 89.36C283.55 97.12 285.94 106.13 289.5 116.38L280.75 118.19L279.63 113.37L273.88 113.94L272.86 118.81L263.86 117ZM278.36 108.3L276.37 98.05L274.44 108.35L278.36 108.3ZM250.98 89.82C250.68 92.05 250.53 93.86 250.48 95.16C253.07 93.24 255.46 91.38 257.55 89.57L265.13 92.72L256.22 99.3L265.03 113.46C264.8 114.17 264.57 114.88 264.33 115.59L257.19 118.55L249.92 104.16C249.81 108.35 249.92 112.39 250.17 116.27L242.23 118.03L242.08 91.07L250.98 89.82ZM217 112.91L220.61 112.65L220.46 101.63C220.36 96.55 220.31 92.93 220.25 90.7L229.26 89.72C228.24 98.31 228.04 105.82 228.65 112.24L232.57 111.87L231.91 90.45L240.35 89.05C239.99 93.71 239.74 98.36 239.69 102.92C239.64 107.47 239.79 112.13 240.25 116.95L208.96 118.65L209.11 91.38L218.02 90.45C216.95 99.3 216.59 106.75 217 112.91ZM196.14 89.57C199.65 89.57 202.55 90.96 204.84 93.81C206.11 95.36 207.03 96.97 207.48 98.62C207.99 100.28 208.2 102.09 208.1 104.11C207.99 107.42 206.87 110.53 204.74 113.37C202.24 116.84 198.99 118.55 194.92 118.55C191.36 118.55 188.46 117.1 186.17 114.25C185.1 113.01 184.23 111.46 183.67 109.7C183.17 107.89 182.96 106.03 183.01 104.11C183.17 101.46 183.86 99.02 185.06 96.77C185.16 96.77 185.26 96.76 185.35 96.76L185.28 96.37C185.6 95.82 185.94 95.27 186.32 94.74C188.76 91.27 192.07 89.57 196.14 89.57ZM195.94 97.02C194.36 97.02 193.09 98.11 192.12 100.28C191.41 101.88 190.95 103.59 190.8 105.3C190.75 106.13 190.9 106.9 191.15 107.63C191.46 108.72 191.97 109.49 192.63 110.01C193.39 110.63 194.36 110.94 195.58 110.94C197.21 110.94 198.43 110.32 199.24 109.03C199.96 107.94 200.31 106.54 200.31 104.89C200.36 103.07 200.01 101.32 199.19 99.61C198.43 97.9 197.31 97.02 195.94 97.02ZM185.28 96.37C185.21 96.51 185.13 96.64 185.06 96.77C181.5 96.92 178.9 97.07 177.31 97.17C177.06 100.28 177.47 107.01 178.54 117.36L169.12 119.07L169.07 97.85C168.62 97.9 167.5 98 165.82 98.21C164.39 98.35 163.25 98.49 162.29 98.55C162.3 98.37 162.31 98.19 162.31 98C162.3 97.43 162.25 96.89 162.17 96.37L162.56 91.22L183.98 89.46L185.28 96.37ZM162.29 98.55C162.21 100.47 161.7 102.25 160.68 103.85C159.61 105.25 158.24 106.49 156.4 107.47C154.32 108.72 151.83 109.54 148.93 109.96C148.77 111.77 148.87 114.41 149.23 117.83L140.73 118.6C140.89 116.07 140.99 111.51 141.04 104.89C141.19 97.07 140.99 92.36 140.53 90.86C145.62 89.77 149.74 89.31 152.79 89.46C155.9 89.67 158.19 90.39 159.71 91.74C161.04 92.89 161.86 94.42 162.17 96.37L162 98.57C162.1 98.57 162.19 98.56 162.29 98.55ZM153.3 101.63C154.17 100.9 154.73 99.92 154.88 98.78C155.18 97.28 154.57 96.29 153.15 95.78C152.03 95.41 150.45 95.47 148.47 96.04L148.67 103.13C150.55 103.13 152.08 102.61 153.3 101.63ZM114.89 117C115.05 116.52 115.21 116.05 115.37 115.57L116.92 114.93L116.05 113.52C118.49 105.93 120.38 98.34 121.71 90.76L133.21 89.36C134.53 97.12 136.97 106.13 140.53 116.38L131.78 118.19L130.61 113.37L124.86 113.94L123.89 118.81L114.89 117ZM129.34 108.3L127.41 98.05L125.47 108.35L129.34 108.3ZM93.06 91.07L93.27 118.03L101.2 116.27C100.9 112.39 100.8 108.35 100.9 104.16L108.17 118.55L115.37 115.57C115.6 114.89 115.83 114.2 116.05 113.52L107.21 99.3L116.11 92.72L108.58 89.57C106.44 91.38 104.1 93.24 101.51 95.16C101.51 93.86 101.66 92.05 101.97 89.82L93.06 91.07Z" />
			<path id="Shape" fill-rule="evenodd" class="shp0" d="M232.41 31.07L257.03 26.83L256.42 33.56C256.17 36.25 256.07 38.94 256.07 41.68C259.27 41.99 262.43 42.67 265.38 43.86C269.09 45.25 272.35 47.43 274.79 50.59L274.84 50.64L274.89 50.69C277.64 54.36 278.81 58.76 278.71 63.37C278.61 69.06 276.83 74.24 272.76 78.22C268.99 82.26 263.75 84.38 258.51 85.57L258.46 85.57C251.39 87.08 243.4 87.02 236.18 86.61L230.22 86.3L231.49 80.29C232.61 75.33 232.97 69.48 233.12 63.94C231.49 65.44 229.66 66.68 227.73 67.77C224.52 69.68 221.01 70.93 217.4 71.81C217.45 74.7 217.76 77.66 218.06 80.4L218.57 85.63L192.98 87.96L193.18 84.75L179.4 87.59L177.26 78.9L175.63 79.05L173.6 88.58L158.49 85.63L155.74 93.34L145.21 91.37L132.84 88.84L134.07 85.63C131.52 85.78 128.93 85.94 126.43 86.25L126.18 86.25C122.47 86.45 118.5 86.66 114.83 87.18L109.29 87.96L109.09 82.21C108.83 76.46 108.63 70.72 108.42 64.97C108.42 64.51 108.37 63.99 108.37 63.47L108.32 63.47L108.17 58.4C107.86 50.59 107.46 42.72 106.8 34.9L106.34 29.99L119.21 28.23L134.68 26L133.86 28.9L141.19 27.92L154.72 26.16L154.21 32.52C153.76 38.53 153.5 44.53 153.4 50.53C153.4 54.83 153.5 59.13 153.6 63.42C153.76 63.37 153.91 63.37 154.11 63.37C156.91 53.64 159.2 43.8 160.98 33.82L161.64 30.04L189.83 26.62L190.64 31.43C191.51 36.77 192.68 42.05 194 47.32C193.95 45.88 193.9 44.48 193.85 43.03C193.8 41.48 193.74 37.96 193.29 36.51L191.51 31.02L197.05 29.83C204.12 28.33 212.11 26.98 219.34 27.4C223.86 27.6 228.59 28.59 232.41 31.18L232.41 31.07ZM217.45 48.1C217.3 48.05 217.1 48.05 216.89 48.05L216.89 49.03C217.2 48.77 217.35 48.46 217.45 48.1ZM255.92 64.72C255.86 64.3 255.71 64.15 255.41 63.89C255.36 63.89 255.3 63.84 255.3 63.84L255.25 65.13C255.36 65.08 255.41 65.03 255.46 65.03L255.61 64.92L255.76 64.87C255.81 64.82 255.86 64.82 255.92 64.77L255.92 64.72Z" />
			<path id="Shape" fill-rule="evenodd" class="shp8" d="M237.31 36.67L250.95 34.29C250.59 38.38 250.49 42.88 250.69 47.85C255.48 47.85 259.65 48.52 263.21 49.92C266.26 51.11 268.65 52.82 270.43 55.04C272.42 57.68 273.33 60.84 273.23 64.51C273.18 69.28 271.71 73 268.81 75.8C266.21 78.59 262.29 80.56 257.05 81.75C251.76 82.89 244.79 83.2 236.09 82.68C237.21 77.45 237.82 69.64 237.87 59.18C237.92 53.18 237.77 45.67 237.31 36.67ZM257.61 70.73C260.05 69.53 261.07 67.67 260.56 65.19C260.31 63.38 259.39 61.93 257.87 60.84C255.83 59.49 253.19 59.03 249.98 59.44L249.62 71.76C253.03 72.23 255.68 71.86 257.61 70.73ZM197.73 36.15C206.43 34.29 213.4 33.51 218.69 33.82C223.93 34.08 227.85 35.37 230.39 37.7C233.29 40.08 234.82 43.6 234.87 48.31C234.92 51.99 233.95 55.3 232.07 58.3C230.29 60.74 227.9 62.81 224.85 64.51C221.29 66.64 217.01 67.98 212.03 68.71C211.77 71.81 211.98 76.32 212.59 82.16L198.04 83.51C198.34 79.21 198.49 71.4 198.65 60.11C198.85 46.71 198.54 38.74 197.73 36.15ZM219.51 54.47C221.03 53.23 221.95 51.63 222.2 49.61C222.71 47.07 221.69 45.42 219.25 44.59C217.32 43.86 214.67 44.02 211.26 45L211.62 57.11C214.83 57.06 217.47 56.18 219.51 54.47ZM153.93 80.77C155.23 76.97 156.45 73.18 157.6 69.39C154.28 69.77 151.19 70.06 148.33 70.21C148.08 63.17 147.92 57.01 147.92 51.73C148.02 45.16 148.33 39.05 148.74 33.36L141.41 34.29L134.13 35.27C134.39 37.86 134.54 43.24 134.59 51.37L134.69 71.09C133.32 71.09 132.05 71.14 130.93 71.19L127.16 71.19C126.3 64.88 125.89 58.04 125.84 50.75C125.79 42.72 126.25 36.98 127.22 33.51L119.48 34.6L111.44 35.68C112.05 42.47 112.51 50.38 112.87 59.44C112.87 58.77 113.17 66.69 113.73 83.3C115.82 82.99 119.74 82.68 125.49 82.32C127.27 82.16 132.46 81.75 141.21 81.23L140.34 83.67L139.38 86.2L145.79 87.55L152.04 88.69L154.8 80.94L153.93 80.77ZM165.58 36L185.21 33.56C187.45 46.86 191.63 62.24 197.73 79.68L182.77 82.79L180.79 74.56L171.02 75.54L169.29 83.82L154.8 80.94L155.76 78.23L158.1 69.33C157.93 69.35 157.76 69.37 157.6 69.39C160.97 58.23 163.64 47.08 165.58 36ZM178.65 65.91L175.29 48.47L171.99 65.96L178.65 65.91Z" />
		</g>
	</g>
</svg>